<?xml version="1.0" encoding="UTF-8"?>
<!DOCTYPE svg PUBLIC "-//W3C//DTD SVG 1.1//EN" "http://www.w3.org/Graphics/SVG/1.1/DTD/svg11.dtd">
<svg xmlns="http://www.w3.org/2000/svg" xml:space="preserve" version="1.1" style="shape-rendering:geometricPrecision; text-rendering:geometricPrecision; image-rendering:optimizeQuality; fill-rule:evenodd; clip-rule:evenodd"
viewBox="0 0 7570.72 6942.5" xmlns:xlink="http://www.w3.org/1999/xlink">
  <g id="Layer_x0020_1">
    <path class="fil0" d="M3779.04 2879.45c356,0 644.57,288.56 644.57,644.57 0,356 -288.57,644.57 -644.57,644.57 -356,0 -644.57,-288.57 -644.57,-644.57 0,-356 288.57,-644.57 644.57,-644.57zm-2601.17 153.74l2282.91 -1378.35 279.45 161.33 -2416.16 1458.81c-32.77,-90.24 -82.86,-172.19 -146.2,-241.79zm2706 -1633.8l824.61 -497.91c32.77,90.24 82.86,172.16 146.2,241.79l-691.39 417.43 -279.43 -161.31zm-1087.84 4418.87l664.35 -396.04 279.77 161.52 -799.54 476.66c-32.23,-90.24 -81.76,-172.3 -144.57,-242.14zm1090.17 -649.91l2346.53 -1398.88c32.26,90.26 81.79,172.3 144.57,242.14l-2211.33 1318.27 -279.77 -161.52zm1728.5 441.99l837.23 -1526.73c72,60.25 155.83,106.89 247.48,135.92l-837.23 1526.72c-72.01,-60.24 -155.83,-106.89 -247.48,-135.91zm-701.79 147.49l-339.8 -585.23 244.41 -141.1 339.35 584.45c-90.74,31.22 -173.39,79.84 -243.95,141.88zm-557.11 -959.49l-339.35 -584.43c90.74,-31.22 173.42,-79.87 243.98,-141.88l339.78 585.2 -244.41 141.1zm-2583.67 959.49l-896.46 -1543.91c90.74,-31.22 173.39,-79.87 243.95,-141.88l896.46 1543.91c-90.74,31.22 -173.39,79.84 -243.95,141.88zm4687.12 -2799.45l-853.99 -1607.48c92.24,-27.82 176.76,-73.42 249.59,-132.81l853.99 1607.48c-92.24,27.85 -176.76,73.45 -249.59,132.81zm-3140.78 0l-323.1 -608.22 245 -141.45 327.69 616.85c-92.21,27.85 -176.76,73.45 -249.59,132.81zm-526.29 -990.63l-327.69 -616.85c92.21,-27.82 176.76,-73.42 249.59,-132.81l323.1 608.22 -245 141.45zm-1926.08 863.13l913.49 -1623.94c71.42,61.1 154.76,108.65 246.09,138.64l-913.48 1623.94c-71.42,-61.1 -154.76,-108.65 -246.09,-138.64zm4528.19 -2822.76c355.84,0 644.33,288.48 644.33,644.32 0,355.84 -288.48,644.33 -644.33,644.33 -64.36,0 -126.54,-9.49 -185.18,-27.07l-956.15 1699.82c-71.42,-61.1 -154.76,-108.65 -246.09,-138.64l956.12 -1699.77c-130.79,-117.93 -213.03,-288.7 -213.03,-478.66 0,-355.84 288.48,-644.32 644.33,-644.32zm0 5653.16c356,0 644.57,288.56 644.57,644.57 0,356 -288.56,644.57 -644.57,644.57 -356,0 -644.57,-288.57 -644.57,-644.57 0,-68.35 10.69,-134.23 30.39,-196.03l-1647.51 -963.63 140.89 -244.04 1649.04 964.54c117.66,-126.37 285.46,-205.41 471.76,-205.41zm1525.52 -2781.83c356,0 644.57,288.56 644.57,644.57 0,356 -288.56,644.57 -644.57,644.57 -356,0 -644.57,-288.57 -644.57,-644.57 0,-73.26 12.24,-143.64 34.75,-209.26l-1609.69 -990.57 141.42 -245 1616.65 994.85c117.07,-120.04 280.54,-194.59 461.44,-194.59zm-4666.3 -2871.57c356,0 644.57,288.57 644.57,644.57 0,73.24 -12.22,143.64 -34.75,209.26l1609.69 990.57 -141.45 244.97 -1616.61 -994.82c-117.07,120.04 -280.52,194.58 -461.45,194.58 -356,0 -644.57,-288.56 -644.57,-644.57 0,-356 288.56,-644.57 644.57,-644.57zm0 5653.4c62.01,0 121.96,8.76 178.68,25.12l878.95 -1602.8c72.01,60.25 155.83,106.89 247.48,135.92l-878.93 1602.77c133.91,118.12 218.37,290.97 218.37,483.56 0,356 -288.57,644.57 -644.57,644.57 -356,0 -644.57,-288.57 -644.57,-644.57 0,-356 288.56,-644.57 644.57,-644.57zm-1615.25 -2781.83c356,0 644.57,288.56 644.57,644.57 0,68.34 -10.67,134.2 -30.39,196.03l1647.49 963.6 -140.89 244.04 -1649.01 -964.51c-117.66,126.37 -285.46,205.41 -471.76,205.41 -356,0 -644.57,-288.57 -644.57,-644.57 0,-356 288.56,-644.57 644.57,-644.57z"/>
  </g>
</svg>
